<svg width="64" height="64" viewBox="0 0 64 64" xmlns="http://www.w3.org/2000/svg">
  <!-- Background -->
  <rect width="64" height="64" fill="#000000"/>
  
  <!-- Capybara body -->
  <ellipse cx="32" cy="40" rx="20" ry="12" fill="#D2691E" stroke="#8B4513" stroke-width="1"/>
  
  <!-- Capybara head -->
  <ellipse cx="32" cy="25" rx="12" ry="10" fill="#D2691E" stroke="#8B4513" stroke-width="1"/>
  
  <!-- Snout -->
  <ellipse cx="32" cy="22" rx="6" ry="4" fill="#F4A460" stroke="#8B4513" stroke-width="1"/>
  
  <!-- Eyes -->
  <circle cx="28" cy="20" r="1" fill="#000000"/>
  <circle cx="36" cy="20" r="1" fill="#000000"/>
  
  <!-- Mouth -->
  <line x1="30" y1="25" x2="34" y2="25" stroke="#000000" stroke-width="1"/>
  
  <!-- Suit jacket -->
  <rect x="20" y="30" width="24" height="20" fill="#000080" stroke="#000000" stroke-width="1"/>
  
  <!-- Shirt -->
  <rect x="24" y="32" width="16" height="16" fill="#FFFFFF" stroke="#000000" stroke-width="1"/>
  
  <!-- Tie -->
  <rect x="30" y="32" width="4" height="16" fill="#000000" stroke="#000000" stroke-width="1"/>
  
  <!-- Brazilian sash -->
  <rect x="18" y="35" width="28" height="6" fill="#228B22" stroke="#000000" stroke-width="1"/>
  <rect x="18" y="36" width="28" height="1" fill="#FFD700"/>
  <rect x="18" y="37" width="28" height="1" fill="#0066CC"/>
  <rect x="18" y="38" width="28" height="1" fill="#FFFFFF"/>
  <rect x="18" y="39" width="28" height="1" fill="#0066CC"/>
  <rect x="18" y="40" width="28" height="1" fill="#FFD700"/>
  
  <!-- Legs -->
  <rect x="26" y="50" width="4" height="8" fill="#D2691E" stroke="#8B4513" stroke-width="1"/>
  <rect x="34" y="50" width="4" height="8" fill="#D2691E" stroke="#8B4513" stroke-width="1"/>
  
  <!-- Feet -->
  <ellipse cx="28" cy="58" rx="3" ry="2" fill="#8B4513"/>
  <ellipse cx="36" cy="58" rx="3" ry="2" fill="#8B4513"/>
</svg>
